<?xml version="1.0" standalone="no"?>
<!DOCTYPE svg PUBLIC "-//W3C//DTD SVG 20010904//EN"
 "http://www.w3.org/TR/2001/REC-SVG-20010904/DTD/svg10.dtd">
<svg version="1.0" xmlns="http://www.w3.org/2000/svg"
 width="310.000000pt" height="310.000000pt" viewBox="0 0 310.000000 310.000000"
 preserveAspectRatio="xMidYMid meet">
<metadata>
Created by potrace 1.14, written by Peter Selinger 2001-2017
</metadata>
<g transform="translate(0.000000,310.000000) scale(0.100000,-0.100000)"
fill="#000000" stroke="none">
<path d="M1845 3014 c-203 -43 -382 -193 -509 -428 -68 -123 -68 -127 -4 -154
60 -25 78 -27 78 -11 0 22 90 201 134 268 57 85 168 196 243 241 31 19 100 49
152 67 l96 32 -60 0 c-33 0 -91 -7 -130 -15z"/>
<path d="M640 2510 c-128 -22 -286 -113 -375 -217 -78 -92 -153 -232 -191
-360 -36 -118 -38 -306 -6 -426 47 -174 144 -338 284 -477 243 -243 591 -437
946 -525 222 -55 477 -103 620 -116 131 -11 193 -7 90 6 -155 20 -508 92 -663
136 -83 24 -274 102 -365 150 -218 116 -445 292 -561 435 -266 327 -301 718
-95 1052 112 180 246 284 430 332 l71 18 -70 0 c-38 0 -90 -4 -115 -8z"/>
</g>
</svg>
