<?xml version="1.0" standalone="no"?>
<!DOCTYPE svg PUBLIC "-//W3C//DTD SVG 20010904//EN"
 "http://www.w3.org/TR/2001/REC-SVG-20010904/DTD/svg10.dtd">
<svg version="1.0" xmlns="http://www.w3.org/2000/svg"
 width="1040.000000pt" height="1040.000000pt" viewBox="0 0 1040.000000 1040.000000"
 preserveAspectRatio="xMidYMid meet">
<metadata>
Created by potrace 1.14, written by Peter Selinger 2001-2017
</metadata>
<g transform="translate(0.000000,1040.000000) scale(0.100000,-0.100000)"
fill="#000000" stroke="none">
<path d="M4948 10395 c-2 -2 -46 -6 -98 -9 -192 -13 -287 -23 -470 -52 -144
-24 -147 -24 -265 -51 -60 -13 -121 -26 -135 -29 -93 -18 -480 -138 -640 -199
-366 -139 -729 -330 -1070 -562 -98 -67 -353 -258 -402 -301 -18 -16 -73 -64
-123 -107 -108 -94 -358 -345 -435 -435 -30 -36 -69 -81 -86 -100 -254 -283
-589 -816 -767 -1220 -97 -219 -214 -538 -246 -668 -5 -20 -21 -80 -36 -132
-30 -110 -81 -335 -90 -400 -4 -25 -10 -63 -15 -85 -5 -22 -11 -64 -15 -94 -4
-30 -8 -61 -10 -70 -1 -9 -6 -50 -10 -91 -4 -41 -9 -82 -10 -90 -19 -102 -26
-681 -11 -865 11 -142 16 -198 21 -225 3 -14 7 -50 10 -80 17 -178 95 -552
162 -780 9 -30 18 -59 19 -65 4 -23 85 -257 118 -343 32 -84 52 -132 118 -282
73 -166 231 -462 323 -605 17 -27 54 -84 80 -125 48 -74 202 -290 214 -300 3
-3 28 -34 56 -70 27 -36 59 -76 71 -90 147 -169 209 -236 329 -355 131 -131
284 -269 400 -360 28 -22 52 -42 55 -45 43 -43 535 -380 555 -380 1 0 42 -23
91 -51 88 -51 381 -198 500 -251 263 -118 704 -257 989 -314 11 -2 40 -8 65
-14 51 -11 263 -46 330 -54 25 -3 71 -8 103 -11 32 -4 66 -8 75 -10 139 -26
796 -26 1007 0 179 22 271 34 305 40 14 3 43 8 65 11 34 5 200 38 245 48 152
37 210 51 313 80 199 57 435 138 552 190 17 8 55 24 85 37 93 39 381 184 501
252 884 502 1600 1253 2063 2161 61 120 174 376 235 531 27 70 111 322 117
350 1 6 18 69 37 140 57 209 103 441 132 665 3 19 7 51 10 70 3 19 7 60 9 90
3 30 8 96 12 145 10 114 11 574 1 720 -8 116 -11 142 -27 270 -5 44 -12 98
-14 120 -3 22 -10 65 -15 95 -6 30 -13 71 -16 90 -12 76 -47 232 -80 360 -19
74 -37 144 -40 156 -11 45 -100 306 -145 424 -80 209 -203 475 -297 640 -11
19 -35 62 -54 95 -155 277 -415 632 -659 900 -512 562 -1208 1044 -1915 1325
-94 38 -379 135 -450 155 -27 7 -88 24 -135 38 -78 22 -198 51 -260 62 -14 2
-45 9 -70 14 -43 10 -180 35 -245 45 -16 3 -55 7 -85 11 -30 3 -71 8 -90 10
-41 6 -117 13 -215 21 -69 6 -622 13 -627 9z"/>
</g>
</svg>
